<?xml version="1.0" encoding="UTF-8"?>
<svg width="45px" height="45px" viewBox="0 0 45 45" version="1.1" xmlns="http://www.w3.org/2000/svg" xmlns:xlink="http://www.w3.org/1999/xlink">
    <!-- Generator: Sketch 48.2 (47327) - http://www.bohemiancoding.com/sketch -->
    <title>Group 13</title>
    <desc>Created with Sketch.</desc>
    <defs>
        <polygon id="path-1" points="0.423658318 0.43779661 44.992325 0.43779661 44.992325 45 0.423658318 45"></polygon>
    </defs>
    <g id="Desktop-HD-1366" stroke="none" stroke-width="1" fill="none" fill-rule="evenodd" transform="translate(-1226.000000, -2104.000000)">
        <g id="social" transform="translate(1041.000000, 2103.000000)">
            <g id="Group-13" transform="translate(185.000000, 1.000000)">
                <mask id="mask-2" fill="white">
                    <use xlink:href="#path-1"></use>
                </mask>
                <g id="Clip-12"></g>
                <path d="M28.7854322,23.0126949 L24.3685678,23.0126949 L24.3685678,33.9354915 L20.1972966,33.9354915 L20.1972966,23.0126949 L16.4180593,23.0126949 L16.4180593,19.3768475 L20.1972966,19.3768475 L20.1972966,17.2382034 C20.1972966,14.1698136 22.3275508,11.6734576 25.2502627,11.6734576 L28.7839068,11.6734576 L28.7839068,15.5411695 L25.2502627,15.5411695 C24.833822,15.5411695 24.3685678,16.0926102 24.3685678,16.8232881 L24.3685678,19.3737966 L28.7854322,19.3737966 L28.7854322,23.0126949 Z M44.9755169,42.3939661 C44.9755169,29.2684576 44.9831441,16.146 44.9717034,3.01972881 C45.1272966,1.73989831 44.070178,0.430322034 42.7529746,0.456254237 C29.7609407,0.422694915 16.7643305,0.460067797 3.77229661,0.437186441 C3.19339831,0.452440678 2.59619492,0.403627119 2.02797458,0.545491525 C1.00060169,0.87879661 0.328652542,1.94735593 0.443822034,3.01972881 C0.433144068,16.1421864 0.440008475,29.2684576 0.440008475,42.3901525 C0.26229661,43.8301525 1.5604322,45.1618475 3.01187288,44.9841356 C16.1411949,44.9879492 29.2667034,44.9879492 42.3967881,44.9841356 C43.839839,45.1542203 45.1570424,43.8415932 44.9755169,42.3939661 Z" id="Fill-11" fill="#000000" mask="url(#mask-2)"></path>
            </g>
        </g>
    </g>
</svg>