<svg xmlns="http://www.w3.org/2000/svg" viewBox="0 0 44.57 44.56"><title>icon-linkedin</title><g id="Layer_2" data-name="Layer 2"><g id="Layer_1-2" data-name="Layer 1"><path d="M44.55,42q0-19.7,0-39.38A2.31,2.31,0,0,0,42.33,0c-13,0-26,0-39,0A8.54,8.54,0,0,0,1.6.11,2.37,2.37,0,0,0,0,2.58Q0,22.26,0,42a2.37,2.37,0,0,0,2.57,2.6H42A2.37,2.37,0,0,0,44.55,42ZM17,30.86H12.67v-13H17ZM14.84,16h0a2.26,2.26,0,1,1,.06-4.51,2.26,2.26,0,1,1,0,4.51ZM32.66,30.86H28.32v-7c0-1.76-.62-3-2.2-3a2.37,2.37,0,0,0-2.22,1.59,2.86,2.86,0,0,0-.15,1.06v7.29H19.42s0-11.83,0-13h4.33v1.84a4.32,4.32,0,0,1,3.92-2.15c2.85,0,5,1.86,5,5.88Z"/></g></g></svg>