<svg xmlns="http://www.w3.org/2000/svg" viewBox="0 0 43.83 43.82"><defs><style>.cls-1{fill:none;}</style></defs><title>Asset 11</title><g id="Layer_2" data-name="Layer 2"><g id="Layer_1-2" data-name="Layer 1"><path class="cls-1" d="M3.29,0h0Z"/><path class="cls-1" d="M41.62,0a2.28,2.28,0,0,1,2.19,2.52q0,19.37,0,38.72a2.33,2.33,0,0,1-2.54,2.54q-19.37,0-38.73,0A2.32,2.32,0,0,1,0,41.25Q0,21.9,0,2.54A2.32,2.32,0,0,1,1.58.11,7.15,7.15,0,0,1,3.25,0H0V43.82H43.83V0H4.69C17,0,29.32,0,41.62,0Z"/><path d="M12.34,29.15a3.92,3.92,0,0,0,.92,1.41,3.79,3.79,0,0,0,1.41.92A6.73,6.73,0,0,0,17,31.9c1.3.06,1.69.07,5,.07s3.67,0,5-.07a6.62,6.62,0,0,0,2.28-.42,4.09,4.09,0,0,0,2.33-2.33,6.62,6.62,0,0,0,.42-2.28c.06-1.29.08-1.68.08-5s0-3.67-.08-5a6.62,6.62,0,0,0-.42-2.28,4.09,4.09,0,0,0-2.33-2.33,6.62,6.62,0,0,0-2.28-.42c-1.29-.06-1.68-.07-5-.07s-3.66,0-5,.07a6.73,6.73,0,0,0-2.28.42,3.79,3.79,0,0,0-1.41.92,3.92,3.92,0,0,0-.92,1.41A7.15,7.15,0,0,0,11.92,17c-.06,1.29-.07,1.68-.07,5s0,3.67.07,5A7.15,7.15,0,0,0,12.34,29.15ZM28.46,13.88A1.48,1.48,0,1,1,27,15.36,1.48,1.48,0,0,1,28.46,13.88Zm-6.55,1.73a6.3,6.3,0,1,1-6.3,6.3A6.31,6.31,0,0,1,21.91,15.61Z"/><path d="M0,2.54Q0,21.89,0,41.25A2.32,2.32,0,0,0,2.54,43.8q19.38,0,38.73,0a2.33,2.33,0,0,0,2.54-2.54q0-19.36,0-38.72A2.28,2.28,0,0,0,41.62,0C29.32,0,17,0,4.69,0H3.25A7.15,7.15,0,0,0,1.58.11,2.32,2.32,0,0,0,0,2.54ZM9.71,16.85a9.09,9.09,0,0,1,.57-3A6.09,6.09,0,0,1,11.7,11.7a5.91,5.91,0,0,1,2.17-1.42,9.15,9.15,0,0,1,3-.57c1.31-.06,1.73-.07,5.06-.07s3.75,0,5.06.07a9.09,9.09,0,0,1,3,.57,6.26,6.26,0,0,1,3.59,3.59,8.84,8.84,0,0,1,.57,3c.06,1.31.08,1.73.08,5.06s0,3.75-.08,5.06a8.84,8.84,0,0,1-.57,3A6.26,6.26,0,0,1,30,33.54a9.09,9.09,0,0,1-3,.57c-1.31.06-1.72.07-5.06.07s-3.75,0-5.06-.07a9.15,9.15,0,0,1-3-.57,5.91,5.91,0,0,1-2.17-1.42A6.09,6.09,0,0,1,10.28,30a9.09,9.09,0,0,1-.57-3c-.06-1.31-.07-1.73-.07-5.06S9.65,18.16,9.71,16.85Z"/><path d="M21.91,26a4.09,4.09,0,1,0-4.09-4.09A4.1,4.1,0,0,0,21.91,26Z"/></g></g></svg>