<?xml version="1.0" encoding="UTF-8"?>
<svg width="45px" height="45px" viewBox="0 0 45 45" version="1.1" xmlns="http://www.w3.org/2000/svg" xmlns:xlink="http://www.w3.org/1999/xlink">
    <!-- Generator: Sketch 48.2 (47327) - http://www.bohemiancoding.com/sketch -->
    <title>Group 10</title>
    <desc>Created with Sketch.</desc>
    <defs>
        <polygon id="path-1" points="0.0427792139 0.43779661 44.6108165 0.43779661 44.6108165 44.9997229 0.0427792139 44.9997229"></polygon>
    </defs>
    <g id="Desktop-HD-1366" stroke="none" stroke-width="1" fill="none" fill-rule="evenodd" transform="translate(-1164.000000, -2104.000000)">
        <g id="social" transform="translate(1041.000000, 2103.000000)">
            <g id="Group-10" transform="translate(123.000000, 1.000000)">
                <mask id="mask-2" fill="white">
                    <use xlink:href="#path-1"></use>
                </mask>
                <g id="Clip-9"></g>
                <path d="M32.4287542,17.853178 L32.4211271,17.8569915 C32.4318051,18.0797034 32.4379068,18.3047034 32.4379068,18.5319915 C32.4379068,25.4177542 27.1965508,33.3575847 17.6107881,33.3575847 C14.6712966,33.3575847 11.9285847,32.4957203 9.62366949,31.0114831 C10.0317203,31.061822 10.4458729,31.0854661 10.8668898,31.0854661 C13.3098559,31.0854661 15.5560424,30.2541102 17.3407881,28.8530085 C15.0610424,28.811822 13.1336695,27.3054661 12.4708729,25.2385169 C12.788161,25.2972458 13.1146017,25.3300424 13.4486695,25.3300424 C13.9261271,25.3300424 14.3860424,25.2659746 14.8215508,25.1469915 C12.4411271,24.6702966 10.6411271,22.5613983 10.6411271,20.0383475 C10.6411271,20.0177542 10.6411271,19.9941102 10.6449407,19.9758051 C11.3473983,20.3647881 12.1520593,20.6004661 13.0047712,20.6263983 C11.6097712,19.6920763 10.689178,18.0995339 10.689178,16.2896186 C10.689178,15.3316525 10.9454492,14.4369915 11.3954492,13.6666525 C13.9642627,16.8212288 17.8075678,18.8980932 22.1359576,19.1139407 C22.0490085,18.731822 22.0017203,18.3367373 22.0017203,17.9248729 C22.0017203,15.0479237 24.3356186,12.7132627 27.2140932,12.7132627 C28.712822,12.7132627 30.0666356,13.3417373 31.0177373,14.3584322 C32.2060424,14.1265678 33.3226525,13.6925847 34.3286695,13.0946186 C33.9373983,14.3111441 33.1121441,15.3316525 32.0351949,15.9784322 C33.0915508,15.8525847 34.0945169,15.5734322 35.0296017,15.1569915 C34.3317203,16.2019068 33.4446864,17.1186864 32.4287542,17.853178 M44.5940085,42.3941949 C44.5940085,29.2686864 44.6016356,16.1462288 44.5901949,3.01995763 C44.7457881,1.74012712 43.6886695,0.429788136 42.3714661,0.455720339 C29.3794322,0.422161017 16.382822,0.459533898 3.39078814,0.437415254 C2.81188983,0.452669492 2.21468644,0.403855932 1.6464661,0.545720339 C0.61909322,0.879025424 -0.0520932203,1.94758475 0.0623135593,3.01995763 C0.0516355932,16.1424153 0.0592627119,29.2686864 0.0592627119,42.3903814 C-0.119211864,43.8303814 1.17892373,45.1620763 2.63036441,44.9836017 C15.7596864,44.9874153 28.8851949,44.9874153 42.0152797,44.9836017 C43.4583305,45.1544492 44.7755339,43.8410593 44.5940085,42.3941949" id="Fill-8" fill="#000000" mask="url(#mask-2)"></path>
            </g>
        </g>
    </g>
</svg>