<?xml version="1.0" encoding="utf-8"?>
<!-- Generator: Adobe Illustrator 22.0.1, SVG Export Plug-In . SVG Version: 6.00 Build 0)  -->
<svg version="1.1" id="Layer_1" xmlns="http://www.w3.org/2000/svg" xmlns:xlink="http://www.w3.org/1999/xlink" x="0px" y="0px"
	 viewBox="0 0 568 55.7" style="enable-background:new 0 0 568 55.7;" xml:space="preserve">
<g>
	<path d="M49.7,40.6c-1.2,4.8-1.9,9.3-2,13.5c-6.8-0.2-14.8-0.2-23.8-0.2c-9.1,0-17.1,0.1-23.8,0.2v-1.4l5.9-0.4
		c0.9-0.1,1.6-0.2,1.9-0.6c0.4-0.3,0.5-1.1,0.5-2.3V8.3c0-1.3-0.2-2.2-0.4-2.8C7.6,4.9,7,4.6,6.3,4.6L0.3,4V2.5
		c4.4,0.2,11.8,0.2,22,0.2c10.2,0,17.5-0.1,21.9-0.2C44.1,4.2,44,6.1,44,8.2s0.1,4,0.2,5.7h-1.1c-0.9-2.3-1.7-4-2.2-5.3
		c-0.6-1.2-1.1-2.1-1.5-2.8c-0.4-0.6-0.9-1-1.3-1.1c-0.4-0.1-1-0.2-1.7-0.3H17.4c-0.9,0-1.6,0.3-1.9,0.8S15,6.6,15,7.8v18.8h18.4
		c0.9,0,1.6-0.2,2-0.5c0.4-0.3,0.8-1,1-2l1.1-5.7h1.6c-0.3,6.5-0.3,13,0,19.6h-1l-1.8-6.4c-0.3-0.8-0.6-1.4-1-1.9
		c-0.4-0.4-0.9-0.7-1.5-0.9c-0.6-0.2-1.4-0.3-2.3-0.3s-2,0-3.3,0H15v20.3c0,1.2,0.2,2,0.7,2.5c0.4,0.5,1.4,0.7,2.8,0.7h18.1
		c1.2,0,2.3-0.1,3.2-0.4c0.9-0.2,1.8-0.8,2.7-1.6c0.9-0.8,1.8-2,2.7-3.5c0.9-1.5,1.9-3.5,3-6H49.7z"/>
	<path d="M77.2,54.1c-1.3-0.1-2.8-0.1-4.3-0.2c-1.6-0.1-3.2-0.1-4.7-0.1c-1.6,0-3.2,0-4.7,0.1c-1.6,0.1-3,0.1-4.3,0.2v-1.3l5.1-1
		c0.7-0.2,1.2-0.4,1.5-0.7c0.3-0.3,0.4-0.8,0.4-1.6V8.1c0-1.1-0.3-2-1-2.5c-0.7-0.5-2.1-1.1-4.3-1.8V2.7c2.2-0.4,5-1.3,8.4-2.7H71
		v49.4c0,1,0.1,1.7,0.3,2c0.2,0.3,0.7,0.5,1.6,0.7l4.3,0.7V54.1z"/>
	<path d="M105.2,54.2c-0.9-0.1-2-0.2-3.5-0.2c-1.5-0.1-3.3-0.1-5.5-0.1c-2.2,0-4,0-5.5,0.1c-1.5,0.1-2.6,0.1-3.5,0.2v-1.3l4.6-0.9
		c1.7-0.3,2.5-1.3,2.5-2.9V32.7c0-1.3-0.3-2.3-1-2.9c-0.7-0.6-2-1.1-3.9-1.6v-1.1c3.9-1,6.7-2.9,8.5-5.9h1.3v28.1
		c0,0.8,0.1,1.4,0.4,1.8c0.2,0.4,0.7,0.7,1.4,0.8l4.2,1V54.2z M96.3,4.4c0.9,0,1.8,0.4,2.5,1.1c0.8,0.7,1.1,1.5,1.1,2.5
		c0,0.9-0.4,1.6-1.2,2.3c-0.8,0.7-1.7,1-2.7,1c-0.9,0-1.7-0.3-2.4-1c-0.7-0.7-1-1.4-1-2.4s0.4-1.7,1.1-2.5
		C94.5,4.8,95.3,4.4,96.3,4.4z"/>
	<path d="M145.1,43.9l-1.8,10.2c-4.9-0.2-10.1-0.2-15.5-0.2c-5.5,0-9.7,0.1-12.5,0.2V53l23.4-28.3l-11.3,0.3
		c-1.3,0.1-2.3,0.2-3.2,0.4c-0.9,0.2-1.7,0.5-2.4,1c-0.7,0.5-1.4,1.1-2.1,1.9c-0.7,0.8-1.4,1.8-2.1,3.1h-1l4.1-12.6h1.6
		c-0.3,1-0.4,1.8-0.4,2.5c0,0.7,0.3,1.1,0.8,1.5c0.5,0.3,1.9,0.5,4,0.4l18.3-0.3v1.7l-22,27.4h6.1c2.3,0,4.2,0,5.7,0
		c1.5,0,2.8-0.2,3.8-0.7c1-0.5,1.9-1.2,2.7-2.3c0.8-1.1,1.6-2.8,2.5-5H145.1z"/>
	<path d="M169.8,54.8c-2.2,0-4.2-0.4-5.9-1.2c-1.7-0.8-3.1-1.9-4.2-3.2c-1.1-1.4-1.9-3-2.5-4.8c-0.5-1.9-0.8-3.8-0.8-6
		c0-2.9,0.5-5.4,1.5-7.6c1-2.2,2.3-4,3.8-5.5c1.6-1.5,3.4-2.6,5.4-3.3c2-0.8,4.1-1.1,6.1-1.1c1,0,1.9,0.1,2.9,0.3
		c0.9,0.2,1.7,0.5,2.5,0.7c0.8,0.3,1.6,0.6,2.3,1l4.5-2.3l0.7,0.2c0,4.2,0,8.5,0,12.7c0,4.2,0,8.5,0,12.7c0,2.2,0.9,3.2,2.8,3.1
		c0.4,0,0.8-0.1,1.1-0.2c0.3-0.1,0.6-0.3,0.9-0.5c0.3-0.2,0.5-0.4,0.7-0.7l0.8,0.4c-0.4,1-0.9,1.9-1.5,2.6c-0.5,0.7-1.1,1.2-1.9,1.8
		c-0.8,0.5-1.7,0.8-2.8,0.8c-1.7,0-3-0.6-3.8-1.7c-0.8-1.1-1.1-2.7-1.1-4.8v-2.4c-0.4,1.1-0.9,2.2-1.5,3.3c-0.6,1.1-1.4,2-2.3,2.9
		c-0.9,0.8-2,1.5-3.3,2C173,54.6,171.5,54.8,169.8,54.8z M181.5,36.8c0-3.9-0.7-7-2.1-9.2c-1.4-2.2-3.8-3.3-7.3-3.3
		c-1.2,0-2.5,0.2-3.8,0.7c-1.3,0.5-2.5,1.3-3.6,2.3c-1.1,1.1-2,2.4-2.7,4.1c-0.7,1.7-1.1,3.7-1.1,6c0,1.9,0.2,3.6,0.7,5.3
		c0.5,1.7,1.2,3.1,2.1,4.4c0.9,1.3,2,2.3,3.3,3c1.3,0.7,2.8,1.1,4.5,1.1c1.4,0,2.6-0.3,3.8-1c1.2-0.7,2.2-1.6,3.1-2.9
		c0.9-1.2,1.6-2.7,2.1-4.3c0.5-1.7,0.8-3.5,0.8-5.4V36.8z"/>
	<path d="M200,3.8l0.2-1.2L210.7,0v24.2c4.5-1.9,8.4-2.9,11.7-2.9c2.3,0,4.3,0.4,6.2,1.3c1.8,0.8,3.4,2,4.7,3.5
		c1.3,1.5,2.3,3.2,3,5.2c0.7,2,1.1,4.2,1.1,6.4c0,2.6-0.4,5-1.3,7.1c-0.9,2.2-2.1,4-3.6,5.5c-1.5,1.5-3.3,2.7-5.3,3.6
		c-2.1,0.8-4.3,1.3-6.6,1.3c-1.1,0-2.2-0.2-3.5-0.5c-1.2-0.3-2.3-0.6-3.3-1c-1-0.4-1.9-0.7-2.6-1c-0.7-0.3-1.1-0.5-1.2-0.5
		c-0.9,0-1.9,1.1-3.1,3.3h-1.2V13.9c0-1.4,0-2.6,0.1-3.6c0.1-1,0-1.8-0.3-2.6c-0.3-0.8-0.8-1.4-1.6-2C203,5,201.7,4.4,200,3.8z
		 M210.7,45.1c0,2.5,0.7,4.4,2.2,5.7c1.5,1.4,3.5,2,6.1,2c8.2,0,12.3-4.5,12.3-13.6c0-2.2-0.3-4.2-0.9-6c-0.6-1.8-1.5-3.5-2.6-4.8
		c-1.1-1.4-2.4-2.4-4-3.2c-1.5-0.8-3.2-1.2-5-1.2c-2.3,0-4.3,0.3-5.9,1c-1.6,0.7-2.4,1.4-2.4,2.3V45.1z"/>
	<path d="M277.5,33.4h-22.8c-0.2,1.1-0.2,2.2-0.2,3.3c0,2.1,0.3,4.1,0.9,5.8c0.6,1.8,1.5,3.3,2.6,4.5c1.1,1.3,2.5,2.2,4.1,2.9
		c1.6,0.7,3.4,1.1,5.3,1.1c1.9,0,3.6-0.4,5.2-1.1c1.6-0.8,3.3-2,5.1-3.8l0.3,2c-3.9,4.7-8.8,7.1-14.8,7.1c-2,0-3.8-0.4-5.5-1.3
		c-1.7-0.9-3.2-2.1-4.5-3.6c-1.3-1.5-2.2-3.3-2.9-5.3c-0.7-2-1.1-4.3-1.1-6.7c0-2.4,0.4-4.6,1.2-6.7c0.8-2.1,1.9-3.9,3.3-5.4
		c1.4-1.6,3.1-2.8,5-3.6c1.9-0.9,4-1.3,6.3-1.3c1.7,0,3.3,0.3,4.8,0.9c1.5,0.6,2.8,1.4,3.9,2.5c1.1,1.1,2,2.3,2.6,3.8
		C277.1,30,277.4,31.6,277.5,33.4z M255.2,31.7h12.4c1.7,0,3-0.1,3.9-0.4c0.8-0.2,1-1.1,0.6-2.6c-0.4-1.4-1.2-2.7-2.2-3.8
		c-1.1-1.1-2.7-1.7-4.8-1.7c-2.6,0-4.8,0.8-6.5,2.3C256.8,27,255.7,29.1,255.2,31.7z"/>
	<path d="M297.8,14.5h1c0,1.5,0,2.9,0,4.4c0,1.4,0,2.9,0,4.4l11.1-0.2V26l-11.1,0.3V43c0,3.3,0.2,5.7,0.7,7.4
		c0.5,1.7,1.8,2.4,3.9,2.3c1.6-0.1,3.8-0.9,6.5-2.3l0.7,1.1c-1.1,1.3-2.5,2.2-4,2.8c-1.5,0.6-3.6,0.9-6.3,0.9
		c-1.4,0-2.5-0.2-3.3-0.5c-0.9-0.3-1.6-0.8-2-1.6c-0.5-0.8-0.8-1.8-1-3.1c-0.2-1.3-0.2-3-0.2-5.1V26.5c-0.8,0-1.5,0-2.2,0
		c-0.7,0-1.4,0-2.2,0c-0.8,0-1.1-0.2-1.1-0.6s0.4-0.8,1.1-1.1c2.4-1,4.1-2.2,5.1-3.3c0.5-0.7,1.1-1.6,1.7-2.7
		C296.6,17.6,297.2,16.2,297.8,14.5z"/>
	<path d="M326.2,8.7c0-0.7-0.1-1.3-0.2-1.8c-0.1-0.5-0.4-0.9-0.8-1.3c-0.4-0.4-1-0.7-1.8-0.9c-0.8-0.3-1.9-0.5-3.2-0.8v-1
		c2.3-0.1,5.3-1.1,9-2.9h2v28.8c4-5,8.4-7.5,13.1-7.5c0.4,0,0.9,0,1.3,0.1c0.5,0.1,0.9,0.1,1.3,0.2c2.1,0.6,3.8,1.8,5.1,3.6
		c1.3,1.8,1.9,4.2,1.9,7.1v17.6c0,0.5,0.1,1,0.3,1.3c0.2,0.3,0.8,0.6,1.7,0.8l3.6,0.8v1.3c-1.7-0.1-3.2-0.2-4.5-0.2
		c-1.3-0.1-2.5-0.1-3.4-0.1c-0.9,0-2,0-3.3,0.1c-1.3,0.1-2.8,0.1-4.5,0.2v-1.3L347,52c0.7-0.2,1.2-0.5,1.5-0.7
		c0.3-0.3,0.5-0.9,0.5-1.8V32.6c0-2.3-0.7-4.1-2-5.5c-1.4-1.4-3.1-2-5.2-2s-4,0.5-5.6,1.6c-1.6,1.1-3.3,2.7-5.1,5v17.8
		c0,0.7,0.1,1.1,0.3,1.4c0.2,0.3,0.6,0.5,1.3,0.7l5.6,1.4v1.3c-0.9-0.1-2.1-0.2-3.6-0.2c-1.5-0.1-3.3-0.1-5.5-0.1
		c-2.2,0-4,0-5.5,0.1c-1.5,0.1-2.7,0.1-3.6,0.2v-1.3l4.4-0.9c0.7-0.2,1.2-0.3,1.4-0.5c0.2-0.2,0.3-0.6,0.3-1.3V8.7z"/>
	<path d="M432.9,25.2l10,22.1L456,13.6c1.1-2.9,1.7-5.1,1.7-6.5s-0.7-2.3-2-2.5l-3.3-0.7V2.6c0.5,0.2,2.6,0.2,6.2,0.2
		c3.6,0,5.9-0.1,6.8-0.2v1.3l-2.5,0.7c-0.8,0.3-1.4,0.7-1.9,1.1s-0.9,1.3-1.3,2.5L442,55.7h-1.7l-10.7-23.4l-11.4,23.4h-1.7
		l-18.2-45.2c-0.5-1.1-0.9-2.1-1.2-2.8c-0.3-0.7-0.6-1.3-0.9-1.7c-0.3-0.4-0.6-0.7-0.9-0.9c-0.3-0.2-0.7-0.4-1.2-0.6l-2.4-0.6V2.6
		c1.4,0.2,3.9,0.2,7.6,0.2c3.8,0,6.6-0.1,8.6-0.2v1.3l-3.8,0.7c-0.4,0.1-0.7,0.4-0.7,0.7c0,0.8,0.6,2.6,1.8,5.6L420,48.2l8.5-18.2
		L420,10.5c-0.5-1.2-1-2.2-1.4-2.9c-0.4-0.7-0.7-1.3-1-1.7c-0.3-0.4-0.6-0.7-0.9-0.9c-0.3-0.2-0.6-0.3-0.9-0.3l-4-0.7V2.6
		c1.5,0.2,4.7,0.2,9.6,0.2c4.8,0,7.8-0.1,9.1-0.2v1.3l-4.7,0.9c-0.5,0.1-0.7,0.4-0.7,0.9c0,0.7,0.6,2.4,1.8,5.1l5,11.8l6.5-14.4
		c0.4-0.9,0.5-1.7,0.2-2.5c-0.3-0.8-0.9-1.3-1.7-1.4L434,3.9V2.6c1.4,0.2,3.9,0.2,7.7,0.2c3.7,0,6.1-0.1,7.2-0.2v1.3L445,4.7
		c-1.9,0.4-3.3,1.6-4.2,3.8L432.9,25.2z"/>
	<path d="M482.7,54.8c-2.2,0-4.2-0.4-5.9-1.2c-1.7-0.8-3.1-1.9-4.2-3.2c-1.1-1.4-1.9-3-2.5-4.8c-0.5-1.9-0.8-3.8-0.8-6
		c0-2.9,0.5-5.4,1.5-7.6c1-2.2,2.3-4,3.8-5.5s3.4-2.6,5.4-3.3c2-0.8,4.1-1.1,6.1-1.1c1,0,1.9,0.1,2.9,0.3c0.9,0.2,1.7,0.5,2.5,0.7
		c0.8,0.3,1.6,0.6,2.3,1l4.5-2.3L499,22c0,4.2,0,8.5,0,12.7s0,8.5,0,12.7c0,2.2,0.9,3.2,2.8,3.1c0.4,0,0.8-0.1,1.1-0.2
		c0.3-0.1,0.6-0.3,0.9-0.5c0.3-0.2,0.5-0.4,0.7-0.7l0.8,0.4c-0.4,1-0.9,1.9-1.5,2.6c-0.5,0.7-1.1,1.2-1.9,1.8
		c-0.8,0.5-1.7,0.8-2.8,0.8c-1.7,0-3-0.6-3.8-1.7c-0.8-1.1-1.1-2.7-1.1-4.8v-2.4c-0.4,1.1-0.9,2.2-1.5,3.3c-0.6,1.1-1.4,2-2.3,2.9
		c-0.9,0.8-2,1.5-3.3,2C485.9,54.6,484.4,54.8,482.7,54.8z M494.4,36.8c0-3.9-0.7-7-2.1-9.2c-1.4-2.2-3.8-3.3-7.3-3.3
		c-1.2,0-2.5,0.2-3.8,0.7s-2.5,1.3-3.6,2.3c-1.1,1.1-2,2.4-2.7,4.1c-0.7,1.7-1.1,3.7-1.1,6c0,1.9,0.2,3.6,0.7,5.3
		c0.5,1.7,1.2,3.1,2.1,4.4c0.9,1.3,2,2.3,3.3,3c1.3,0.7,2.8,1.1,4.5,1.1c1.4,0,2.6-0.3,3.8-1c1.2-0.7,2.2-1.6,3.1-2.9
		c0.9-1.2,1.6-2.7,2.1-4.3c0.5-1.7,0.8-3.5,0.8-5.4V36.8z"/>
	<path d="M523.2,14.5h1c0,1.5,0,2.9,0,4.4c0,1.4,0,2.9,0,4.4l11.1-0.2V26l-11.1,0.3V43c0,3.3,0.2,5.7,0.7,7.4
		c0.5,1.7,1.8,2.4,3.9,2.3c1.6-0.1,3.8-0.9,6.5-2.3l0.7,1.1c-1.1,1.3-2.5,2.2-4,2.8c-1.5,0.6-3.6,0.9-6.3,0.9
		c-1.4,0-2.5-0.2-3.3-0.5c-0.9-0.3-1.6-0.8-2-1.6c-0.5-0.8-0.8-1.8-1-3.1c-0.2-1.3-0.2-3-0.2-5.1V26.5c-0.8,0-1.5,0-2.2,0
		c-0.7,0-1.4,0-2.2,0c-0.8,0-1.1-0.2-1.1-0.6s0.4-0.8,1.1-1.1c2.4-1,4.1-2.2,5.1-3.3c0.5-0.7,1.1-1.6,1.7-2.7
		C522,17.6,522.6,16.2,523.2,14.5z"/>
	<path d="M555.2,14.5h1c0,1.5,0,2.9,0,4.4c0,1.4,0,2.9,0,4.4l11.1-0.2V26l-11.1,0.3V43c0,3.3,0.2,5.7,0.7,7.4
		c0.5,1.7,1.8,2.4,3.9,2.3c1.6-0.1,3.8-0.9,6.5-2.3l0.7,1.1c-1.1,1.3-2.5,2.2-4,2.8c-1.5,0.6-3.6,0.9-6.3,0.9
		c-1.4,0-2.5-0.2-3.3-0.5c-0.9-0.3-1.6-0.8-2-1.6c-0.5-0.8-0.8-1.8-1-3.1c-0.2-1.3-0.2-3-0.2-5.1V26.5c-0.8,0-1.5,0-2.2,0
		c-0.7,0-1.4,0-2.2,0c-0.8,0-1.1-0.2-1.1-0.6s0.4-0.8,1.1-1.1c2.4-1,4.1-2.2,5.1-3.3c0.5-0.7,1.1-1.6,1.7-2.7
		C554,17.6,554.6,16.2,555.2,14.5z"/>
</g>
</svg>
